<?xml version="1.0" encoding="UTF-8"?>
<svg xmlns="http://www.w3.org/2000/svg" width="1200" height="630" viewBox="0 0 1200 630" role="img">
  <rect width="1200" height="630" fill="#f8faf9"/>

    <g><line x1="0" y1="0" x2="0" y2="630" stroke="#edf1f3" stroke-width="1"/><line x1="64" y1="0" x2="64" y2="630" stroke="#edf1f3" stroke-width="1"/><line x1="128" y1="0" x2="128" y2="630" stroke="#edf1f3" stroke-width="1"/><line x1="192" y1="0" x2="192" y2="630" stroke="#edf1f3" stroke-width="1"/><line x1="256" y1="0" x2="256" y2="630" stroke="#edf1f3" stroke-width="1"/><line x1="320" y1="0" x2="320" y2="630" stroke="#edf1f3" stroke-width="1"/><line x1="384" y1="0" x2="384" y2="630" stroke="#edf1f3" stroke-width="1"/><line x1="448" y1="0" x2="448" y2="630" stroke="#edf1f3" stroke-width="1"/><line x1="512" y1="0" x2="512" y2="630" stroke="#edf1f3" stroke-width="1"/><line x1="576" y1="0" x2="576" y2="630" stroke="#edf1f3" stroke-width="1"/><line x1="640" y1="0" x2="640" y2="630" stroke="#edf1f3" stroke-width="1"/><line x1="704" y1="0" x2="704" y2="630" stroke="#edf1f3" stroke-width="1"/><line x1="768" y1="0" x2="768" y2="630" stroke="#edf1f3" stroke-width="1"/><line x1="832" y1="0" x2="832" y2="630" stroke="#edf1f3" stroke-width="1"/><line x1="896" y1="0" x2="896" y2="630" stroke="#edf1f3" stroke-width="1"/><line x1="960" y1="0" x2="960" y2="630" stroke="#edf1f3" stroke-width="1"/><line x1="1024" y1="0" x2="1024" y2="630" stroke="#edf1f3" stroke-width="1"/><line x1="1088" y1="0" x2="1088" y2="630" stroke="#edf1f3" stroke-width="1"/><line x1="1152" y1="0" x2="1152" y2="630" stroke="#edf1f3" stroke-width="1"/><line x1="0" y1="0" x2="1200" y2="0" stroke="#edf1f3" stroke-width="1"/><line x1="0" y1="64" x2="1200" y2="64" stroke="#edf1f3" stroke-width="1"/><line x1="0" y1="128" x2="1200" y2="128" stroke="#edf1f3" stroke-width="1"/><line x1="0" y1="192" x2="1200" y2="192" stroke="#edf1f3" stroke-width="1"/><line x1="0" y1="256" x2="1200" y2="256" stroke="#edf1f3" stroke-width="1"/><line x1="0" y1="320" x2="1200" y2="320" stroke="#edf1f3" stroke-width="1"/><line x1="0" y1="384" x2="1200" y2="384" stroke="#edf1f3" stroke-width="1"/><line x1="0" y1="448" x2="1200" y2="448" stroke="#edf1f3" stroke-width="1"/><line x1="0" y1="512" x2="1200" y2="512" stroke="#edf1f3" stroke-width="1"/><line x1="0" y1="576" x2="1200" y2="576" stroke="#edf1f3" stroke-width="1"/></g>

  <g transform="translate(84 76) scale(1.1875)" fill="none" stroke="#101214" stroke-width="4" stroke-linecap="round" stroke-linejoin="round">
    <path d="M32 6 54 19v26L32 58 10 45V19L32 6Z"/>
    <path d="M32 18 44 25v14L32 46 20 39V25L32 18Z"/>
    <path d="M32 6v12"/>
    <path d="M54 19 44 25"/>
    <path d="M54 45 44 39"/>
    <path d="M32 58V46"/>
    <path d="M10 45 20 39"/>
    <path d="M10 19 20 25"/>
    <path d="M32 18c7 4 12 8 12 14s-5 10-12 14c-7-4-12-8-12-14s5-10 12-14Z"/>
  </g>
    <text x="184" y="122" font-family="Inter, ui-sans-serif, system-ui, -apple-system, BlinkMacSystemFont, Segoe UI, sans-serif" font-size="42" font-weight="850" fill="#101214" letter-spacing="0">Invite trusted teammates</text>
    <text x="186" y="158" font-family="Inter, ui-sans-serif, system-ui, -apple-system, BlinkMacSystemFont, Segoe UI, sans-serif" font-size="24" font-weight="500" fill="#5d6972" letter-spacing="0">Private first. Team-owned infra. User-owned AI.</text>

  <g>
    <rect x="82" y="248" width="490" height="250" rx="14" fill="#ffffff" stroke="#d8dee4" stroke-width="2"/>
    <rect x="106" y="274" width="24" height="24" rx="6" fill="#101214"/>
    <text x="144" y="296" font-family="Inter, ui-sans-serif, system-ui, -apple-system, BlinkMacSystemFont, Segoe UI, sans-serif" font-size="25" font-weight="850" fill="#101214" letter-spacing="0">Host</text>
    <text x="110" y="340" font-family="Inter, ui-sans-serif, system-ui, -apple-system, BlinkMacSystemFont, Segoe UI, sans-serif" font-size="19" font-weight="450" fill="#5d6972" letter-spacing="0"><tspan x="110" dy="0">Runs Group Leveling, Gitea, workflow</tspan><tspan x="110" dy="25.650000000000002">server, and Tailscale access.</tspan></text>
  </g>

  <g>
    <rect x="628" y="248" width="490" height="250" rx="14" fill="#ffffff" stroke="#d8dee4" stroke-width="2"/>
    <rect x="652" y="274" width="24" height="24" rx="6" fill="#1f8a62"/>
    <text x="690" y="296" font-family="Inter, ui-sans-serif, system-ui, -apple-system, BlinkMacSystemFont, Segoe UI, sans-serif" font-size="25" font-weight="850" fill="#101214" letter-spacing="0">Member</text>
    <text x="656" y="340" font-family="Inter, ui-sans-serif, system-ui, -apple-system, BlinkMacSystemFont, Segoe UI, sans-serif" font-size="19" font-weight="450" fill="#5d6972" letter-spacing="0"><tspan x="656" dy="0">Joins the private network, opens the invite</tspan><tspan x="656" dy="25.650000000000002">URL, and connects ChatGPT/Codex.</tspan></text>
  </g>

  <g stroke="#101214" stroke-width="2.5" stroke-linecap="round" stroke-linejoin="round" fill="none">
    <line x1="572" y1="370" x2="628" y2="370"/>
    <path d="M617.6076951545867,376 L628,370 L617.6076951545867,364"/>
  </g>

  <g>
    <rect x="86" y="535" width="262" height="44" rx="8" fill="#ffffff" stroke="#dce3e7"/>
    <rect x="100" y="549" width="16" height="16" rx="4" fill="#246bfe"/>
    <text x="128" y="564" font-family="Inter, ui-sans-serif, system-ui, -apple-system, BlinkMacSystemFont, Segoe UI, sans-serif" font-size="16" font-weight="720" fill="#182025" letter-spacing="0">Private network access</text>
  </g>

  <g>
    <rect x="396" y="535" width="322" height="44" rx="8" fill="#ffffff" stroke="#dce3e7"/>
    <rect x="410" y="549" width="16" height="16" rx="4" fill="#1f8a62"/>
    <text x="438" y="564" font-family="Inter, ui-sans-serif, system-ui, -apple-system, BlinkMacSystemFont, Segoe UI, sans-serif" font-size="16" font-weight="720" fill="#182025" letter-spacing="0">Accepted members are visible</text>
  </g>

  <g>
    <rect x="742" y="535" width="352" height="44" rx="8" fill="#ffffff" stroke="#dce3e7"/>
    <rect x="756" y="549" width="16" height="16" rx="4" fill="#b46b18"/>
    <text x="784" y="564" font-family="Inter, ui-sans-serif, system-ui, -apple-system, BlinkMacSystemFont, Segoe UI, sans-serif" font-size="16" font-weight="720" fill="#182025" letter-spacing="0">Each user owns their agent auth</text>
  </g>

</svg>
