<?xml version="1.0" encoding="UTF-8"?>
<svg xmlns="http://www.w3.org/2000/svg" width="1600" height="1000" viewBox="0 0 1600 1000" role="img">
  <rect width="1600" height="1000" fill="#f8faf9"/>

    <g><line x1="0" y1="0" x2="0" y2="1000" stroke="#edf1f3" stroke-width="1"/><line x1="64" y1="0" x2="64" y2="1000" stroke="#edf1f3" stroke-width="1"/><line x1="128" y1="0" x2="128" y2="1000" stroke="#edf1f3" stroke-width="1"/><line x1="192" y1="0" x2="192" y2="1000" stroke="#edf1f3" stroke-width="1"/><line x1="256" y1="0" x2="256" y2="1000" stroke="#edf1f3" stroke-width="1"/><line x1="320" y1="0" x2="320" y2="1000" stroke="#edf1f3" stroke-width="1"/><line x1="384" y1="0" x2="384" y2="1000" stroke="#edf1f3" stroke-width="1"/><line x1="448" y1="0" x2="448" y2="1000" stroke="#edf1f3" stroke-width="1"/><line x1="512" y1="0" x2="512" y2="1000" stroke="#edf1f3" stroke-width="1"/><line x1="576" y1="0" x2="576" y2="1000" stroke="#edf1f3" stroke-width="1"/><line x1="640" y1="0" x2="640" y2="1000" stroke="#edf1f3" stroke-width="1"/><line x1="704" y1="0" x2="704" y2="1000" stroke="#edf1f3" stroke-width="1"/><line x1="768" y1="0" x2="768" y2="1000" stroke="#edf1f3" stroke-width="1"/><line x1="832" y1="0" x2="832" y2="1000" stroke="#edf1f3" stroke-width="1"/><line x1="896" y1="0" x2="896" y2="1000" stroke="#edf1f3" stroke-width="1"/><line x1="960" y1="0" x2="960" y2="1000" stroke="#edf1f3" stroke-width="1"/><line x1="1024" y1="0" x2="1024" y2="1000" stroke="#edf1f3" stroke-width="1"/><line x1="1088" y1="0" x2="1088" y2="1000" stroke="#edf1f3" stroke-width="1"/><line x1="1152" y1="0" x2="1152" y2="1000" stroke="#edf1f3" stroke-width="1"/><line x1="1216" y1="0" x2="1216" y2="1000" stroke="#edf1f3" stroke-width="1"/><line x1="1280" y1="0" x2="1280" y2="1000" stroke="#edf1f3" stroke-width="1"/><line x1="1344" y1="0" x2="1344" y2="1000" stroke="#edf1f3" stroke-width="1"/><line x1="1408" y1="0" x2="1408" y2="1000" stroke="#edf1f3" stroke-width="1"/><line x1="1472" y1="0" x2="1472" y2="1000" stroke="#edf1f3" stroke-width="1"/><line x1="1536" y1="0" x2="1536" y2="1000" stroke="#edf1f3" stroke-width="1"/><line x1="1600" y1="0" x2="1600" y2="1000" stroke="#edf1f3" stroke-width="1"/><line x1="0" y1="0" x2="1600" y2="0" stroke="#edf1f3" stroke-width="1"/><line x1="0" y1="64" x2="1600" y2="64" stroke="#edf1f3" stroke-width="1"/><line x1="0" y1="128" x2="1600" y2="128" stroke="#edf1f3" stroke-width="1"/><line x1="0" y1="192" x2="1600" y2="192" stroke="#edf1f3" stroke-width="1"/><line x1="0" y1="256" x2="1600" y2="256" stroke="#edf1f3" stroke-width="1"/><line x1="0" y1="320" x2="1600" y2="320" stroke="#edf1f3" stroke-width="1"/><line x1="0" y1="384" x2="1600" y2="384" stroke="#edf1f3" stroke-width="1"/><line x1="0" y1="448" x2="1600" y2="448" stroke="#edf1f3" stroke-width="1"/><line x1="0" y1="512" x2="1600" y2="512" stroke="#edf1f3" stroke-width="1"/><line x1="0" y1="576" x2="1600" y2="576" stroke="#edf1f3" stroke-width="1"/><line x1="0" y1="640" x2="1600" y2="640" stroke="#edf1f3" stroke-width="1"/><line x1="0" y1="704" x2="1600" y2="704" stroke="#edf1f3" stroke-width="1"/><line x1="0" y1="768" x2="1600" y2="768" stroke="#edf1f3" stroke-width="1"/><line x1="0" y1="832" x2="1600" y2="832" stroke="#edf1f3" stroke-width="1"/><line x1="0" y1="896" x2="1600" y2="896" stroke="#edf1f3" stroke-width="1"/><line x1="0" y1="960" x2="1600" y2="960" stroke="#edf1f3" stroke-width="1"/></g>

  <g transform="translate(74 58) scale(0.90625)" fill="none" stroke="#101214" stroke-width="4" stroke-linecap="round" stroke-linejoin="round">
    <path d="M32 6 54 19v26L32 58 10 45V19L32 6Z"/>
    <path d="M32 18 44 25v14L32 46 20 39V25L32 18Z"/>
    <path d="M32 6v12"/>
    <path d="M54 19 44 25"/>
    <path d="M54 45 44 39"/>
    <path d="M32 58V46"/>
    <path d="M10 45 20 39"/>
    <path d="M10 19 20 25"/>
    <path d="M32 18c7 4 12 8 12 14s-5 10-12 14c-7-4-12-8-12-14s5-10 12-14Z"/>
  </g>
    <text x="150" y="98" font-family="Inter, ui-sans-serif, system-ui, -apple-system, BlinkMacSystemFont, Segoe UI, sans-serif" font-size="44" font-weight="850" fill="#101214" letter-spacing="0">Group Leveling Architecture</text>
    <text x="152" y="135" font-family="Inter, ui-sans-serif, system-ui, -apple-system, BlinkMacSystemFont, Segoe UI, sans-serif" font-size="22" font-weight="500" fill="#5d6972" letter-spacing="0">How a self-hosted human-agent team workspace holds together</text>

  <g stroke="#101214" stroke-width="2.5" stroke-linecap="round" stroke-linejoin="round" fill="none">
    <line x1="390" y1="265" x2="475" y2="265"/>
    <path d="M464.60769515458674,271 L475,265 L464.60769515458674,259"/>
  </g>

  <g stroke="#101214" stroke-width="2.5" stroke-linecap="round" stroke-linejoin="round" fill="none">
    <line x1="835" y1="245" x2="930" y2="245"/>
    <path d="M919.6076951545867,251 L930,245 L919.6076951545867,239"/>
  </g>

  <g stroke="#101214" stroke-width="2.5" stroke-linecap="round" stroke-linejoin="round" fill="none">
    <line x1="835" y1="532" x2="930" y2="532"/>
    <path d="M919.6076951545867,538 L930,532 L919.6076951545867,526"/>
  </g>

  <g stroke="#101214" stroke-width="2.5" stroke-linecap="round" stroke-linejoin="round" fill="none">
    <line x1="1070" y1="455" x2="1070" y2="345"/>
    <path d="M1076,355.39230484541326 L1070,345 L1064,355.39230484541326"/>
  </g>

  <g stroke="#101214" stroke-width="2.5" stroke-linecap="round" stroke-linejoin="round" fill="none">
    <line x1="1210" y1="532" x2="1265" y2="532"/>
    <path d="M1254.6076951545867,538 L1265,532 L1254.6076951545867,526"/>
  </g>

  <g stroke="#101214" stroke-width="2.5" stroke-linecap="round" stroke-linejoin="round" fill="none">
    <line x1="1395" y1="610" x2="1395" y2="680"/>
    <path d="M1389,669.6076951545867 L1395,680 L1401,669.6076951545867"/>
  </g>

  <g stroke="#101214" stroke-width="2.5" stroke-linecap="round" stroke-linejoin="round" fill="none">
    <line x1="655" y1="370" x2="655" y2="455"/>
    <path d="M649,444.60769515458674 L655,455 L661,444.60769515458674"/>
  </g>

  <g>
    <rect x="90" y="190" width="300" height="150" rx="14" fill="#ffffff" stroke="#d8dee4" stroke-width="2"/>
    <rect x="114" y="216" width="24" height="24" rx="6" fill="#246bfe"/>
    <text x="152" y="238" font-family="Inter, ui-sans-serif, system-ui, -apple-system, BlinkMacSystemFont, Segoe UI, sans-serif" font-size="25" font-weight="850" fill="#101214" letter-spacing="0">Teammates</text>
    <text x="118" y="282" font-family="Inter, ui-sans-serif, system-ui, -apple-system, BlinkMacSystemFont, Segoe UI, sans-serif" font-size="19" font-weight="450" fill="#5d6972" letter-spacing="0"><tspan x="118" dy="0">Browser UI over LAN or</tspan><tspan x="118" dy="25.650000000000002">Tailscale</tspan></text>
  </g>
  <g>
    <rect x="475" y="165" width="360" height="205" rx="14" fill="#ffffff" stroke="#d8dee4" stroke-width="2"/>
    <rect x="499" y="191" width="24" height="24" rx="6" fill="#101214"/>
    <text x="537" y="213" font-family="Inter, ui-sans-serif, system-ui, -apple-system, BlinkMacSystemFont, Segoe UI, sans-serif" font-size="25" font-weight="850" fill="#101214" letter-spacing="0">Group Leveling</text>
    <text x="503" y="257" font-family="Inter, ui-sans-serif, system-ui, -apple-system, BlinkMacSystemFont, Segoe UI, sans-serif" font-size="19" font-weight="450" fill="#5d6972" letter-spacing="0"><tspan x="503" dy="0">Next.js app, chat, invite,</tspan><tspan x="503" dy="25.650000000000002">settings</tspan></text>
  </g>
  <g>
    <rect x="930" y="190" width="280" height="155" rx="14" fill="#ffffff" stroke="#d8dee4" stroke-width="2"/>
    <rect x="954" y="216" width="24" height="24" rx="6" fill="#b46b18"/>
    <text x="992" y="238" font-family="Inter, ui-sans-serif, system-ui, -apple-system, BlinkMacSystemFont, Segoe UI, sans-serif" font-size="25" font-weight="850" fill="#101214" letter-spacing="0">Gitea</text>
    <text x="958" y="282" font-family="Inter, ui-sans-serif, system-ui, -apple-system, BlinkMacSystemFont, Segoe UI, sans-serif" font-size="19" font-weight="450" fill="#5d6972" letter-spacing="0"><tspan x="958" dy="0">Repos, users,</tspan><tspan x="958" dy="25.650000000000002">branches, pull</tspan><tspan x="958" dy="25.650000000000002">requests</tspan></text>
  </g>
  <g>
    <rect x="930" y="455" width="280" height="155" rx="14" fill="#ffffff" stroke="#d8dee4" stroke-width="2"/>
    <rect x="954" y="481" width="24" height="24" rx="6" fill="#1f8a62"/>
    <text x="992" y="503" font-family="Inter, ui-sans-serif, system-ui, -apple-system, BlinkMacSystemFont, Segoe UI, sans-serif" font-size="25" font-weight="850" fill="#101214" letter-spacing="0">Workflow Server</text>
    <text x="958" y="547" font-family="Inter, ui-sans-serif, system-ui, -apple-system, BlinkMacSystemFont, Segoe UI, sans-serif" font-size="19" font-weight="450" fill="#5d6972" letter-spacing="0"><tspan x="958" dy="0">Runs Codex jobs and</tspan><tspan x="958" dy="25.650000000000002">records trace</tspan></text>
  </g>
  <g>
    <rect x="475" y="455" width="360" height="155" rx="14" fill="#ffffff" stroke="#d8dee4" stroke-width="2"/>
    <rect x="499" y="481" width="24" height="24" rx="6" fill="#101214"/>
    <text x="537" y="503" font-family="Inter, ui-sans-serif, system-ui, -apple-system, BlinkMacSystemFont, Segoe UI, sans-serif" font-size="25" font-weight="850" fill="#101214" letter-spacing="0">File State</text>
    <text x="503" y="547" font-family="Inter, ui-sans-serif, system-ui, -apple-system, BlinkMacSystemFont, Segoe UI, sans-serif" font-size="19" font-weight="450" fill="#5d6972" letter-spacing="0"><tspan x="503" dy="0">Chats, agents, projects,</tspan><tspan x="503" dy="25.650000000000002">workflows</tspan></text>
  </g>
  <g>
    <rect x="1265" y="455" width="260" height="155" rx="14" fill="#ffffff" stroke="#d8dee4" stroke-width="2"/>
    <rect x="1289" y="481" width="24" height="24" rx="6" fill="#246bfe"/>
    <text x="1327" y="503" font-family="Inter, ui-sans-serif, system-ui, -apple-system, BlinkMacSystemFont, Segoe UI, sans-serif" font-size="25" font-weight="850" fill="#101214" letter-spacing="0">User auth homes</text>
    <text x="1293" y="547" font-family="Inter, ui-sans-serif, system-ui, -apple-system, BlinkMacSystemFont, Segoe UI, sans-serif" font-size="19" font-weight="450" fill="#5d6972" letter-spacing="0"><tspan x="1293" dy="0">Separate Codex</tspan><tspan x="1293" dy="25.650000000000002">profile per teammate</tspan></text>
  </g>
  <g>
    <rect x="1265" y="680" width="260" height="145" rx="14" fill="#ffffff" stroke="#d8dee4" stroke-width="2"/>
    <rect x="1289" y="706" width="24" height="24" rx="6" fill="#1f8a62"/>
    <text x="1327" y="728" font-family="Inter, ui-sans-serif, system-ui, -apple-system, BlinkMacSystemFont, Segoe UI, sans-serif" font-size="25" font-weight="850" fill="#101214" letter-spacing="0">ChatGPT / Codex</text>
    <text x="1293" y="772" font-family="Inter, ui-sans-serif, system-ui, -apple-system, BlinkMacSystemFont, Segoe UI, sans-serif" font-size="19" font-weight="450" fill="#5d6972" letter-spacing="0"><tspan x="1293" dy="0">User subscription</tspan><tspan x="1293" dy="25.650000000000002">and limits</tspan></text>
  </g>

  <g>
    <rect x="90" y="850" width="1420" height="92" rx="14" fill="#ffffff" stroke="#d8dee4"/>

  <g>
    <rect x="118" y="874" width="252" height="44" rx="8" fill="#ffffff" stroke="#dce3e7"/>
    <rect x="132" y="888" width="16" height="16" rx="4" fill="#246bfe"/>
    <text x="160" y="903" font-family="Inter, ui-sans-serif, system-ui, -apple-system, BlinkMacSystemFont, Segoe UI, sans-serif" font-size="16" font-weight="720" fill="#182025" letter-spacing="0">Chat coordinates work</text>
  </g>

  <g>
    <rect x="430" y="874" width="282" height="44" rx="8" fill="#ffffff" stroke="#dce3e7"/>
    <rect x="444" y="888" width="16" height="16" rx="4" fill="#b46b18"/>
    <text x="472" y="903" font-family="Inter, ui-sans-serif, system-ui, -apple-system, BlinkMacSystemFont, Segoe UI, sans-serif" font-size="16" font-weight="720" fill="#182025" letter-spacing="0">Gitea owns repos and PRs</text>
  </g>

  <g>
    <rect x="794" y="874" width="292" height="44" rx="8" fill="#ffffff" stroke="#dce3e7"/>
    <rect x="808" y="888" width="16" height="16" rx="4" fill="#1f8a62"/>
    <text x="836" y="903" font-family="Inter, ui-sans-serif, system-ui, -apple-system, BlinkMacSystemFont, Segoe UI, sans-serif" font-size="16" font-weight="720" fill="#182025" letter-spacing="0">Codex runs with user auth</text>
  </g>

  <g>
    <rect x="1170" y="874" width="292" height="44" rx="8" fill="#ffffff" stroke="#dce3e7"/>
    <rect x="1184" y="888" width="16" height="16" rx="4" fill="#101214"/>
    <text x="1212" y="903" font-family="Inter, ui-sans-serif, system-ui, -apple-system, BlinkMacSystemFont, Segoe UI, sans-serif" font-size="16" font-weight="720" fill="#182025" letter-spacing="0">Tailscale protects access</text>
  </g>
  </g>

</svg>
