<?xml version="1.0" encoding="UTF-8"?>
<svg xmlns="http://www.w3.org/2000/svg" width="1200" height="630" viewBox="0 0 1200 630" role="img">
  <rect width="1200" height="630" fill="#f8faf9"/>


  <path d="M0 138.6 C 264 31.5, 408.00000000000006 239.4, 660 126 S 1020 94.5, 1200 176.4" fill="none" stroke="#dfe8e3" stroke-width="62" stroke-linecap="round"/>
  <path d="M0 491.40000000000003 C 240 390.6, 408.00000000000006 630, 672.0000000000001 504 S 1008 441, 1200 541.8" fill="none" stroke="#eaf0fb" stroke-width="58" stroke-linecap="round"/>
  <path d="M0 378 C 216 289.8, 504 403.2, 696 315 S 1008 277.2, 1200 352.8" fill="none" stroke="#f2eadf" stroke-width="42" stroke-linecap="round"/>


  <g transform="translate(84 78) scale(1.21875)" fill="none" stroke="#101214" stroke-width="4" stroke-linecap="round" stroke-linejoin="round">
    <path d="M32 6 54 19v26L32 58 10 45V19L32 6Z"/>
    <path d="M32 18 44 25v14L32 46 20 39V25L32 18Z"/>
    <path d="M32 6v12"/>
    <path d="M54 19 44 25"/>
    <path d="M54 45 44 39"/>
    <path d="M32 58V46"/>
    <path d="M10 45 20 39"/>
    <path d="M10 19 20 25"/>
    <path d="M32 18c7 4 12 8 12 14s-5 10-12 14c-7-4-12-8-12-14s5-10 12-14Z"/>
  </g>
    <text x="184" y="130" font-family="Inter, ui-sans-serif, system-ui, -apple-system, BlinkMacSystemFont, Segoe UI, sans-serif" font-size="34" font-weight="800" fill="#101214" letter-spacing="0">Group Leveling</text>

  <g>
    <rect x="184" y="154" width="298" height="36" rx="18" fill="#1f8a62" opacity="0.12"/>
    <circle cx="204" cy="172" r="5" fill="#1f8a62"/>
    <text x="218" y="178" font-family="Inter, ui-sans-serif, system-ui, -apple-system, BlinkMacSystemFont, Segoe UI, sans-serif" font-size="15" font-weight="750" fill="#1f8a62" letter-spacing="0">private team workspace</text>
  </g>
    <text x="84" y="270" font-family="Inter, ui-sans-serif, system-ui, -apple-system, BlinkMacSystemFont, Segoe UI, sans-serif" font-size="64" font-weight="850" fill="#101214" letter-spacing="0">Self-hosted team chat</text>
    <text x="84" y="342" font-family="Inter, ui-sans-serif, system-ui, -apple-system, BlinkMacSystemFont, Segoe UI, sans-serif" font-size="64" font-weight="850" fill="#101214" letter-spacing="0">for human-agent work</text>
    <text x="88" y="414" font-family="Inter, ui-sans-serif, system-ui, -apple-system, BlinkMacSystemFont, Segoe UI, sans-serif" font-size="27" font-weight="450" fill="#5d6972" letter-spacing="0"><tspan x="88" dy="0">Invite over Tailscale. Each teammate brings</tspan><tspan x="88" dy="36.45">ChatGPT/Codex auth. Work lands in Gitea pull</tspan><tspan x="88" dy="36.45">requests.</tspan></text>

  <g>
    <rect x="88" y="540" width="282" height="44" rx="8" fill="#ffffff" stroke="#dce3e7"/>
    <rect x="102" y="554" width="16" height="16" rx="4" fill="#246bfe"/>
    <text x="130" y="569" font-family="Inter, ui-sans-serif, system-ui, -apple-system, BlinkMacSystemFont, Segoe UI, sans-serif" font-size="16" font-weight="720" fill="#182025" letter-spacing="0">Tailscale private access</text>
  </g>

  <g>
    <rect x="348" y="540" width="212" height="44" rx="8" fill="#ffffff" stroke="#dce3e7"/>
    <rect x="362" y="554" width="16" height="16" rx="4" fill="#1f8a62"/>
    <text x="390" y="569" font-family="Inter, ui-sans-serif, system-ui, -apple-system, BlinkMacSystemFont, Segoe UI, sans-serif" font-size="16" font-weight="720" fill="#182025" letter-spacing="0">User-owned agents</text>
  </g>

  <g>
    <rect x="570" y="540" width="232" height="44" rx="8" fill="#ffffff" stroke="#dce3e7"/>
    <rect x="584" y="554" width="16" height="16" rx="4" fill="#b46b18"/>
    <text x="612" y="569" font-family="Inter, ui-sans-serif, system-ui, -apple-system, BlinkMacSystemFont, Segoe UI, sans-serif" font-size="16" font-weight="720" fill="#182025" letter-spacing="0">Gitea pull requests</text>
  </g>

  <g>
    <rect x="885" y="105" width="240" height="330" rx="16" fill="#ffffff" stroke="#d8dee4"/>
    <text x="911" y="153" font-family="Inter, ui-sans-serif, system-ui, -apple-system, BlinkMacSystemFont, Segoe UI, sans-serif" font-size="22" font-weight="800" fill="#101214" letter-spacing="0">team chat</text>

  <g>
    <rect x="911" y="189" width="188" height="42" rx="8" fill="#f5f7f8"/>
    <text x="925" y="206" font-family="Inter, ui-sans-serif, system-ui, -apple-system, BlinkMacSystemFont, Segoe UI, sans-serif" font-size="13" font-weight="800" fill="#1f8a62" letter-spacing="0">@agent-lina</text>
    <text x="925" y="222" font-family="Inter, ui-sans-serif, system-ui, -apple-system, BlinkMacSystemFont, Segoe UI, sans-serif" font-size="13" font-weight="500" fill="#5d6972" letter-spacing="0">update #web-app</text>
  </g>

  <g>
    <rect x="911" y="247" width="188" height="42" rx="8" fill="#f5f7f8"/>
    <text x="925" y="264" font-family="Inter, ui-sans-serif, system-ui, -apple-system, BlinkMacSystemFont, Segoe UI, sans-serif" font-size="13" font-weight="800" fill="#1f8a62" letter-spacing="0">@agent-lina</text>
    <text x="925" y="280" font-family="Inter, ui-sans-serif, system-ui, -apple-system, BlinkMacSystemFont, Segoe UI, sans-serif" font-size="13" font-weight="500" fill="#5d6972" letter-spacing="0">started workflow</text>
  </g>

  <g>
    <rect x="911" y="305" width="188" height="42" rx="8" fill="#f5f7f8"/>
    <text x="925" y="322" font-family="Inter, ui-sans-serif, system-ui, -apple-system, BlinkMacSystemFont, Segoe UI, sans-serif" font-size="13" font-weight="800" fill="#1f8a62" letter-spacing="0">gitea</text>
    <text x="925" y="338" font-family="Inter, ui-sans-serif, system-ui, -apple-system, BlinkMacSystemFont, Segoe UI, sans-serif" font-size="13" font-weight="500" fill="#5d6972" letter-spacing="0">pull request ready</text>
  </g>
    <rect x="911" y="365" width="188" height="40" rx="8" fill="#101214"/>
    <text x="973" y="391" font-family="Inter, ui-sans-serif, system-ui, -apple-system, BlinkMacSystemFont, Segoe UI, sans-serif" font-size="16" font-weight="800" fill="#ffffff" letter-spacing="0">Open PR</text>
  </g>

</svg>
